<svg width="24" height="24" viewBox="0 0 24 24" fill="none" xmlns="http://www.w3.org/2000/svg">
<g clip-path="url(#clip0_6_3368)">
<path d="M2 12L1.30138 11.7272C1.23287 11.9026 1.23287 12.0974 1.30138 12.2728L2 12ZM22 12L22.6986 12.2728C22.7671 12.0974 22.7671 11.9026 22.6986 11.7272L22 12ZM14.25 12C14.25 13.2426 13.2426 14.25 12 14.25V15.75C14.0711 15.75 15.75 14.0711 15.75 12H14.25ZM12 14.25C10.7574 14.25 9.75 13.2426 9.75 12H8.25C8.25 14.0711 9.92893 15.75 12 15.75V14.25ZM9.75 12C9.75 10.7574 10.7574 9.75 12 9.75V8.25C9.92893 8.25 8.25 9.92893 8.25 12H9.75ZM12 9.75C13.2426 9.75 14.25 10.7574 14.25 12H15.75C15.75 9.92893 14.0711 8.25 12 8.25V9.75ZM2.69862 12.2728C4.19777 8.43405 7.67513 5.75 12 5.75V4.25C6.99693 4.25 3.0025 7.37123 1.30138 11.7272L2.69862 12.2728ZM12 5.75C16.3249 5.75 19.8022 8.43405 21.3014 12.2728L22.6986 11.7272C20.9975 7.37124 17.0031 4.25 12 4.25V5.75ZM21.3014 11.7272C19.8022 15.5659 16.3249 18.25 12 18.25V19.75C17.0031 19.75 20.9975 16.6288 22.6986 12.2728L21.3014 11.7272ZM12 18.25C7.67513 18.25 4.19777 15.5659 2.69862 11.7272L1.30138 12.2728C3.0025 16.6288 6.99693 19.75 12 19.75V18.25Z" fill="#AAABAD"/>
</g>
<defs>
<clipPath id="clip0_6_3368">
<rect width="24" height="24" fill="white"/>
</clipPath>
</defs>
</svg>
